<svg xmlns="http://www.w3.org/2000/svg" width="178.036" height="76.48" viewBox="0 0 178.036 76.48"><defs><style>.a{fill:#fff;}</style></defs><g transform="translate(0 0.003)"><path class="a" d="M42.443,142.74H25.813l5.15-12.662h4.7a3.738,3.738,0,0,0,2.6-.957,3.03,3.03,0,0,0,1.067-2.331q0-2.252-2.6-2.25H33.212l3.525-8.7H47.244a3.726,3.726,0,0,0,2.609-.957,3.111,3.111,0,0,0,1.055-2.393q0-2.178-3.2-2.18H35.742a5.569,5.569,0,0,0-2.853.51,5.336,5.336,0,0,0-1.529,2.393l-4.686,11.341H24.726a3.757,3.757,0,0,0-2.6.957,2.987,2.987,0,0,0-1.07,2.293q0,2.274,2.6,2.274h.766l-5.15,12.662H11.063A13.682,13.682,0,0,0,4.221,144.2a8.225,8.225,0,0,0-3.085,3.178A8.855,8.855,0,0,0,0,151.762a8.031,8.031,0,0,0,2.656,6.194,9.62,9.62,0,0,0,6.761,2.434,12.815,12.815,0,0,0,8.905-3.547,14,14,0,0,0,2.393-2.831,47.024,47.024,0,0,0,2.539-5.078l.309-.646H41.376a3.729,3.729,0,0,0,2.609-.957,3.111,3.111,0,0,0,1.058-2.393Q45.042,142.743,42.443,142.74ZM13.859,152.923a6.006,6.006,0,0,1-4,1.692,3.621,3.621,0,0,1-2.494-.893,2.841,2.841,0,0,1-1.01-2.214q0-3.224,4.547-3.224h6.122A12.687,12.687,0,0,1,13.859,152.923Z" transform="translate(0 -83.913)"/><path class="a" d="M202.988,180.019h-2.551l3.35-8.257.254-.627a4.2,4.2,0,0,0,.373-1.553,2.125,2.125,0,0,0-.684-1.6,2.393,2.393,0,0,0-1.706-.649,3.51,3.51,0,0,0-3.037,1.74A4.848,4.848,0,0,0,194.64,167a9.051,9.051,0,0,0-6.94,3.516,11.877,11.877,0,0,0-3.08,7.972,7.054,7.054,0,0,0,1.565,4.765,5.164,5.164,0,0,0,4.116,1.821h2.633a5.161,5.161,0,0,0,3.362-1.553,2.712,2.712,0,0,0,2.714,1.553h2.97a4.6,4.6,0,0,0,2.872-.8,2.633,2.633,0,0,0,1.043-2.214Q205.91,180.021,202.988,180.019Zm-6.239-5.449-1.623,4.011a2.456,2.456,0,0,1-2.527,1.556h-.582q-1.915,0-1.915-2.393a6.414,6.414,0,0,1,1.6-4.08A4.4,4.4,0,0,1,195,171.691a2.374,2.374,0,0,1,1.472.464,1.345,1.345,0,0,1,.615,1.089A3.6,3.6,0,0,1,196.749,174.57Z" transform="translate(-140.437 -127.036)"/><path class="a" d="M286.987,161.252h-2.6l3.111-7.629H289.2a4.652,4.652,0,0,0,2.872-.79,2.6,2.6,0,0,0,1.034-2.207q0-2.063-2.946-2.065h-.718l.859-1.833a5.718,5.718,0,0,0,.6-2.226,2.025,2.025,0,0,0-.67-1.534,2.312,2.312,0,0,0-1.635-.639,3.614,3.614,0,0,0-3.432,2.575l-.256.625-1.23,3.039H282.61a4.625,4.625,0,0,0-2.886.8,2.668,2.668,0,0,0-1.031,2.24q0,2.017,2.6,2.017h.347l-2.735,6.749-.448,1.022a5.2,5.2,0,0,0-.419,1.915,2.652,2.652,0,0,0,1.034,2.2,4.4,4.4,0,0,0,2.793.811h4.152a4.664,4.664,0,0,0,2.889-.79,2.613,2.613,0,0,0,1.031-2.2Q289.933,161.254,286.987,161.252Z" transform="translate(-211.494 -108.269)"/><path class="a" d="M366.153,180.011h-2.759l2.482-6.122a6.441,6.441,0,0,0,.51-2.436,4.021,4.021,0,0,0-1.5-3.166,5.479,5.479,0,0,0-3.721-1.295,7.913,7.913,0,0,0-5.844,2.714,5.042,5.042,0,0,0-4.662-2.714,5.914,5.914,0,0,0-2.424.443,11.691,11.691,0,0,0-2.563,1.785,2.328,2.328,0,0,0-2.506-1.915q-1.946,0-2.922,2.393l-4.614,11.365-.256.627a4.347,4.347,0,0,0-.347,1.577,1.934,1.934,0,0,0,.684,1.5,2.36,2.36,0,0,0,1.635.613q2.412,0,3.688-3.13l2.714-6.639q1.462-3.618,3.966-3.618a1.654,1.654,0,0,1,1.089.383,1.125,1.125,0,0,1,.464.893,3.872,3.872,0,0,1-.347,1.345l-2.621,6.462-.256.627a4.483,4.483,0,0,0-.347,1.577,1.958,1.958,0,0,0,.672,1.484,2.3,2.3,0,0,0,1.623.625q2.439,0,3.712-3.111l2.6-6.4a7.493,7.493,0,0,1,1.857-2.829,3.48,3.48,0,0,1,2.341-1.067,1.343,1.343,0,0,1,1.532,1.508,2.323,2.323,0,0,1-.187.859l-2.178,5.334a7.1,7.1,0,0,0-.627,2.458,2.671,2.671,0,0,0,.957,2.135,3.706,3.706,0,0,0,2.482.811h4.7a4.64,4.64,0,0,0,2.872-.79,2.609,2.609,0,0,0,1.034-2.2Q369.078,180.013,366.153,180.011Z" transform="translate(-254.851 -127.028)"/><path class="a" d="M491.863,167a10.2,10.2,0,0,0-7.515,3.224,10.506,10.506,0,0,0-3.178,7.632,7.152,7.152,0,0,0,3.111,6.308q1.321.9,5.1.9a14.09,14.09,0,0,0,3.607-.359,7.137,7.137,0,0,0,2.5-1.3,10.722,10.722,0,0,0,2.946-3.908,11.614,11.614,0,0,0,1.122-4.928,7.274,7.274,0,0,0-2.154-5.416A7.678,7.678,0,0,0,491.863,167Zm.625,11.966a3.408,3.408,0,0,1-2.711,1.089q-3.015,0-3.015-2.69a5.694,5.694,0,0,1,1.414-3.733,4.073,4.073,0,0,1,3.13-1.692,2.616,2.616,0,0,1,2,.811,2.982,2.982,0,0,1,.766,2.132A5.983,5.983,0,0,1,492.487,178.966Z" transform="translate(-366.017 -127.036)"/><path class="a" d="M577.883,170.982h-2.922q-2.135,0-2.135-1.915t3.688-5.452l.256-.239q3.848,0,3.848-2.944,0-2.135-3.037-2.135h-5.428a4,4,0,0,1-1.369-.139,1,1,0,0,1-.416-.7l-.187-.718a1.959,1.959,0,0,0-2.111-1.625q-1.716,0-2.69,2.343l-2.632,6.462a5.828,5.828,0,0,0-.51,1.809,2,2,0,0,0,.708,1.563,2.491,2.491,0,0,0,1.737.627q1.718,0,2.783-2.6l.79-1.95h2.412a19.387,19.387,0,0,0-2.783,3.757,6.806,6.806,0,0,0-.79,3.154,5.889,5.889,0,0,0,1.474,4.152,4.916,4.916,0,0,0,3.791,1.6h4.547a4.647,4.647,0,0,0,2.886-.79,2.632,2.632,0,0,0,1.034-2.226Q580.829,170.984,577.883,170.982Z" transform="translate(-427.685 -117.999)"/><path class="a" d="M659.319,180.019h-6.888q-2.621,0-2.621-1.74h4.638a8.293,8.293,0,0,0,4.222-.857,5.021,5.021,0,0,0,2.551-4.64,5.262,5.262,0,0,0-1.843-4.186,7.233,7.233,0,0,0-4.887-1.6,9.518,9.518,0,0,0-7.2,3.248,10.942,10.942,0,0,0-3.025,7.723,6.938,6.938,0,0,0,1.914,5.289,7.813,7.813,0,0,0,5.579,1.809h6.562a4.665,4.665,0,0,0,2.889-.79,2.606,2.606,0,0,0,1.031-2.2Q662.241,180.021,659.319,180.019Zm-5.026-8.28c1.022,0,1.556.412,1.6,1.23q.067,1.091-2.412,1.091h-2.558a3.736,3.736,0,0,1,3.362-2.321Z" transform="translate(-490.08 -127.036)"/><path class="a" d="M587.976,1.84A1.946,1.946,0,0,0,586.227.091a36.99,36.99,0,0,0-8.032.3c-5.983.857-10.9,3.07-14.23,6.4a22.545,22.545,0,0,0-5.454,9.767,13.783,13.783,0,0,0-2.223-2.944c-5.552-5.552-15.036-4.717-15.436-4.679a1.948,1.948,0,0,0-1.752,1.749c-.038.4-.874,9.886,4.679,15.438,4.131,4.131,10.353,4.743,13.7,4.743.385,0,.976,0,1.627.012.792,0,1.675.014,2.372.014a39.558,39.558,0,0,0,5.566-.394c5.988-.858,10.9-3.071,14.233-6.4s5.545-8.252,6.4-14.23a37.172,37.172,0,0,0,.3-8.029ZM548.659,21.247l5.488,5.485a13.554,13.554,0,0,1-7.618-3.35c-3.061-3.061-3.551-8.137-3.59-10.607,2.479.043,7.546.536,10.607,3.59a13.519,13.519,0,0,1,3.365,7.622l-5.5-5.5a1.945,1.945,0,1,0-2.753,2.75Zm29.855.105c-4.147,4.147-10.53,5.291-14.627,5.571l10.1-10.1a1.944,1.944,0,1,0-2.75-2.75L561.151,24.169c.285-4.111,1.436-10.487,5.564-14.622,5.16-5.16,13.608-5.7,17.458-5.653C584.217,7.749,583.666,16.209,578.514,21.352Z" transform="translate(-410.033 0)"/></g></svg>