<svg xmlns="http://www.w3.org/2000/svg" width="30.458" height="24.747" viewBox="0 0 30.458 24.747"><defs><style>.a{fill:#03a9f4;}</style></defs><path class="a" d="M30.458,50.93a13.019,13.019,0,0,1-3.6.986,6.209,6.209,0,0,0,2.747-3.451,12.479,12.479,0,0,1-3.96,1.511,6.244,6.244,0,0,0-10.8,4.27,6.43,6.43,0,0,0,.145,1.424,17.674,17.674,0,0,1-12.87-6.531,6.246,6.246,0,0,0,1.919,8.346,6.167,6.167,0,0,1-2.821-.769v.069a6.273,6.273,0,0,0,5,6.135,6.232,6.232,0,0,1-1.637.206A5.521,5.521,0,0,1,3.4,63.018a6.3,6.3,0,0,0,5.835,4.35,12.547,12.547,0,0,1-7.742,2.663A11.7,11.7,0,0,1,0,69.945a17.579,17.579,0,0,0,9.579,2.8c11.49,0,17.772-9.518,17.772-17.769,0-.276-.01-.543-.023-.807A12.457,12.457,0,0,0,30.458,50.93Z" transform="translate(0 -48)"/></svg>