<svg xmlns="http://www.w3.org/2000/svg" width="15.897" height="9.476" viewBox="0 0 15.897 9.476"><defs><style>.a{fill:#a8a7a7;}</style></defs><g transform="translate(0 -98.725)"><path class="a" d="M7.948,98.725a9.917,9.917,0,0,0-7.824,4.361.629.629,0,0,0,0,.751A9.912,9.912,0,0,0,7.948,108.2a9.917,9.917,0,0,0,7.824-4.361.629.629,0,0,0,0-.751A9.912,9.912,0,0,0,7.948,98.725Zm.218,8.074a3.344,3.344,0,1,1,3.119-3.119A3.346,3.346,0,0,1,8.166,106.8Zm-.1-1.541a1.8,1.8,0,1,1,1.681-1.681A1.8,1.8,0,0,1,8.065,105.258Z"/></g></svg>